<svg width="36" height="35" viewBox="0 0 36 35" fill="none" xmlns="http://www.w3.org/2000/svg">
<path d="M18 32.0486C19.1874 31.3038 22.7178 28.9746 26.178 25.6162C30.3508 21.566 33.9991 16.4266 34 11.0454L18 32.0486ZM18 32.0486C16.8126 31.3038 13.2822 28.9746 9.82202 25.6162C5.6489 21.5658 2.00045 16.4259 2 11.0443C2.00275 8.58406 2.88764 6.26149 4.40666 4.57798C5.91949 2.90132 7.92394 2.00291 9.96555 2C12.6131 2.0004 14.9012 3.24706 16.3442 5.37701L18 7.82111L19.6558 5.37701C21.0988 3.24706 23.3869 2.0004 26.0345 2C28.0761 2.00291 30.0805 2.90132 31.5933 4.57798C33.1125 6.2617 33.9975 8.58463 34 11.0453L18 32.0486Z" stroke="#231F20" stroke-width="4"/>
</svg>
